<?xml version="1.0" standalone="no"?>
<!DOCTYPE svg PUBLIC "-//W3C//DTD SVG 20010904//EN"
 "http://www.w3.org/TR/2001/REC-SVG-20010904/DTD/svg10.dtd">
<svg version="1.0" xmlns="http://www.w3.org/2000/svg"
 width="160.000000pt" height="220.000000pt" viewBox="0 0 160.000000 220.000000"
 preserveAspectRatio="xMidYMid meet">

<g transform="translate(0.000000,220.000000) scale(0.100000,-0.100000)"
fill="#000000" stroke="none">
<path d="M721 2085 c-16 -15 -36 -42 -43 -61 -9 -25 -16 -33 -28 -28 -39 18
-90 16 -123 -5 -45 -27 -57 -58 -57 -141 0 -69 -5 -81 -27 -59 -18 18 -87 14
-121 -7 -63 -36 -63 -43 -60 -467 l3 -382 26 -72 c74 -201 241 -330 464 -358
186 -23 419 105 512 281 58 109 63 146 63 480 0 283 -1 302 -19 318 -16 15
-25 16 -58 7 -22 -6 -59 -24 -81 -41 l-42 -30 0 175 c0 198 -8 231 -62 265
-33 21 -87 23 -130 5 -15 -6 -18 -2 -18 24 0 102 -122 160 -199 96z m130 -44
l29 -29 0 -321 c0 -307 -1 -321 -19 -321 -23 0 -42 -22 -33 -36 9 -14 135 -13
144 0 10 14 -11 36 -34 36 -18 0 -19 9 -16 260 3 252 4 260 25 281 29 30 76
29 108 -1 l25 -23 0 -354 0 -353 -27 -6 c-159 -33 -273 -159 -273 -300 0 -36
3 -44 19 -44 15 0 20 10 25 51 17 123 112 227 225 245 74 12 81 26 81 163 0
66 5 132 11 148 19 51 92 113 134 113 13 0 15 -33 15 -268 0 -150 -5 -295 -11
-328 -16 -87 -63 -176 -129 -248 -153 -163 -389 -203 -584 -98 -69 36 -167
136 -201 202 -52 103 -55 126 -55 528 l0 373 25 24 c33 33 70 32 106 -4 l29
-29 0 -175 0 -175 -31 -11 c-52 -18 -30 -36 49 -39 66 -3 72 -1 72 16 0 13 -9
22 -25 26 l-25 6 0 280 c0 278 0 279 23 306 31 35 77 37 112 4 l25 -23 0 -263
0 -263 -22 -3 c-15 -2 -23 -10 -23 -22 0 -17 8 -19 70 -19 62 0 70 2 70 19 0
12 -8 20 -22 22 l-23 3 0 315 0 315 25 24 c33 33 70 32 106 -4z"/>
<path d="M402 203 c3 -144 4 -148 25 -151 20 -3 22 1 25 55 3 53 5 58 28 61
44 6 60 30 60 89 0 71 -21 93 -90 93 l-51 0 3 -147z m86 95 c25 -25 11 -88
-19 -88 -16 0 -19 8 -19 50 0 51 12 64 38 38z"/>
<path d="M571 213 c-26 -167 -26 -163 -2 -163 14 0 21 8 23 27 3 24 8 28 33
28 25 0 30 -4 33 -27 3 -22 9 -28 27 -28 21 0 24 4 20 28 -3 15 -12 70 -20
122 -26 159 -22 150 -59 150 l-33 0 -22 -137z m67 -5 c9 -57 9 -58 -15 -58
-18 0 -23 4 -20 18 3 9 9 40 12 67 9 56 11 54 23 -27z"/>
<path d="M730 199 c0 -150 0 -150 23 -147 19 3 22 10 25 56 3 50 5 53 33 59
40 8 59 38 59 95 0 66 -23 88 -90 88 l-50 0 0 -151z m88 58 c3 -42 1 -47 -17
-47 -18 0 -21 6 -21 51 0 43 3 50 18 47 13 -2 18 -15 20 -51z"/>
<path d="M890 200 l0 -151 63 3 c54 3 62 5 62 23 0 16 -8 21 -37 23 -37 3 -38
4 -38 43 0 37 2 39 30 39 23 0 30 4 30 20 0 16 -7 20 -30 20 -29 0 -30 2 -30
45 l0 45 40 0 c33 0 40 3 40 20 0 18 -7 20 -65 20 l-65 0 0 -150z"/>
<path d="M1050 200 c0 -143 1 -150 20 -150 18 0 20 7 20 61 0 57 1 60 23 57
19 -3 23 -10 27 -58 4 -48 8 -55 28 -58 20 -3 22 0 22 50 0 32 -6 62 -15 76
-14 19 -14 24 1 47 20 31 13 94 -13 112 -9 7 -38 13 -65 13 l-48 0 0 -150z
m85 65 c0 -34 -3 -40 -22 -43 -21 -3 -23 1 -23 43 0 42 2 46 23 43 19 -3 22
-9 22 -43z"/>
</g>
</svg>
