<?xml version="1.0" standalone="no"?>
<!DOCTYPE svg PUBLIC "-//W3C//DTD SVG 20010904//EN"
 "http://www.w3.org/TR/2001/REC-SVG-20010904/DTD/svg10.dtd">
<svg version="1.0" xmlns="http://www.w3.org/2000/svg"
 width="160.000000pt" height="220.000000pt" viewBox="0 0 160.000000 220.000000"
 preserveAspectRatio="xMidYMid meet">

<g transform="translate(0.000000,220.000000) scale(0.100000,-0.100000)"
fill="#000000" stroke="none">
<path d="M798 1635 c-15 -8 -32 -24 -38 -35 -10 -19 -13 -19 -40 -5 -49 25
-104 19 -144 -16 -33 -29 -37 -30 -58 -15 -28 20 -90 21 -128 1 -60 -31 -62
-44 -58 -389 l3 -313 42 -85 c73 -147 203 -244 359 -268 231 -36 460 111 531
340 14 45 17 98 17 282 1 214 0 228 -20 255 -11 15 -33 34 -47 41 -23 11 -27
20 -27 53 0 79 -49 129 -127 129 -21 0 -48 -7 -61 -15 -20 -15 -23 -14 -50 16
-23 26 -37 32 -78 35 -32 3 -58 -1 -76 -11z m101 -40 c35 -18 41 -32 41 -101
l0 -54 -80 0 -80 0 0 56 c0 48 4 59 29 85 33 33 50 35 90 14z m-188 -54 c21
-22 29 -39 29 -65 l0 -36 -49 0 c-31 0 -53 -5 -61 -15 -31 -37 3 -131 65 -183
l36 -29 -28 -22 c-33 -27 -79 -22 -105 10 -15 18 -18 43 -18 171 0 145 1 150
25 173 33 33 70 32 106 -4z m392 18 c29 -13 47 -48 47 -89 l0 -30 -80 0 -80 0
0 40 c0 69 53 106 113 79z m-598 -44 c24 -23 25 -30 25 -139 0 -63 -3 -122 -6
-131 -7 -18 -55 -45 -79 -45 -9 0 -30 13 -46 29 -29 29 -29 31 -29 141 0 110
0 112 29 141 36 36 73 37 106 4z m717 -145 c18 -23 19 -37 16 -255 -4 -259
-12 -292 -86 -390 -209 -276 -626 -214 -753 113 -18 47 -23 83 -27 201 -4 138
-3 144 14 136 39 -17 104 -17 130 0 24 16 26 15 60 -14 42 -38 101 -42 152
-11 31 19 34 19 60 3 15 -9 28 -18 30 -19 2 -1 -10 -22 -26 -48 -35 -55 -55
-120 -50 -167 5 -59 30 -42 45 31 14 67 43 120 90 165 40 38 77 55 147 69 40
8 62 18 64 28 3 14 -18 16 -145 20 -135 3 -152 6 -191 28 -27 15 -54 42 -69
68 -44 75 -48 73 253 70 l266 -3 20 -25z m-337 -190 c-8 -13 -35 -13 -55 0
-11 7 -5 10 23 10 23 0 36 -4 32 -10z"/>
<path d="M480 200 c0 -143 1 -150 20 -150 18 0 20 7 20 61 0 57 1 60 23 57 19
-3 23 -10 27 -58 4 -48 8 -55 28 -58 20 -3 22 0 22 50 0 30 -6 62 -13 73 -12
15 -12 23 1 47 18 36 10 98 -15 115 -9 7 -38 13 -65 13 l-48 0 0 -150z m85 65
c0 -34 -3 -40 -22 -43 -21 -3 -23 1 -23 36 0 43 7 54 30 50 10 -2 15 -15 15
-43z"/>
<path d="M666 335 c-21 -22 -29 -71 -25 -164 5 -92 22 -121 74 -121 54 0 69
27 72 130 2 92 -8 148 -29 162 -21 13 -76 9 -92 -7z m69 -135 c0 -98 -1 -105
-20 -105 -18 0 -20 8 -23 94 -3 107 1 124 25 119 16 -3 18 -16 18 -108z"/>
<path d="M829 333 c-15 -17 -26 -185 -15 -228 9 -35 33 -55 67 -55 40 0 69 32
69 75 0 28 -4 35 -20 35 -14 0 -20 -7 -20 -24 0 -28 -26 -54 -41 -39 -5 5 -9
52 -7 109 3 91 5 99 23 99 14 0 21 -8 23 -27 2 -20 9 -28 23 -28 24 0 26 45 3
78 -19 27 -84 31 -105 5z"/>
<path d="M980 199 c0 -150 0 -150 23 -147 19 3 22 10 25 56 2 28 6 52 10 52 4
0 16 -24 27 -52 15 -39 26 -54 43 -56 28 -4 28 -2 -9 89 l-30 77 30 61 c37 72
37 71 11 71 -14 0 -28 -17 -49 -57 l-30 -58 -1 58 c0 54 -1 57 -25 57 l-25 0
0 -151z"/>
</g>
</svg>
