<?xml version="1.0" standalone="no"?>
<!DOCTYPE svg PUBLIC "-//W3C//DTD SVG 20010904//EN"
 "http://www.w3.org/TR/2001/REC-SVG-20010904/DTD/svg10.dtd">
<svg version="1.0" xmlns="http://www.w3.org/2000/svg"
 width="160.000000pt" height="220.000000pt" viewBox="0 0 160.000000 220.000000"
 preserveAspectRatio="xMidYMid meet">

<g transform="translate(0.000000,220.000000) scale(0.100000,-0.100000)"
fill="#000000" stroke="none">
<path d="M718 2094 c-54 -29 -58 -50 -58 -318 l0 -245 -37 15 c-23 10 -49 13
-71 9 -35 -6 -84 -46 -94 -75 -4 -11 -8 -12 -19 -4 -45 35 -122 22 -164 -27
l-25 -31 0 -232 c0 -253 5 -288 60 -396 112 -222 385 -336 625 -262 185 56
340 230 374 416 6 34 11 184 11 343 l0 283 -25 16 c-20 13 -30 14 -62 4 -21
-7 -44 -17 -51 -23 -7 -5 -14 -8 -16 -6 -2 2 14 67 36 144 46 168 46 215 -1
257 -57 51 -147 43 -186 -16 -9 -14 -35 -96 -58 -183 l-42 -158 -5 218 -5 219
-37 34 c-31 28 -45 34 -80 34 -24 -1 -55 -7 -70 -16z m117 -49 l25 -24 0 -324
0 -325 -26 -6 c-17 -5 -24 -12 -22 -24 5 -25 141 -25 146 0 2 12 -5 19 -22 24
-17 4 -26 13 -26 27 0 11 30 131 66 266 69 261 83 291 135 291 41 0 58 -9 75
-41 14 -28 12 -41 -36 -222 -28 -105 -58 -209 -66 -230 -9 -25 -14 -76 -14
-156 l0 -118 -62 -17 c-115 -31 -200 -116 -234 -233 -19 -66 -16 -98 11 -98
17 0 21 9 26 50 8 64 37 120 86 167 42 41 114 77 153 78 51 1 55 10 60 152 5
100 10 142 24 171 21 43 67 82 109 92 l28 7 -3 -313 c-3 -301 -4 -316 -26
-371 -51 -126 -167 -242 -290 -288 -72 -28 -200 -37 -273 -20 -222 52 -388
260 -389 487 l0 51 31 -15 c37 -18 92 -12 129 15 25 19 26 19 49 1 53 -43 129
-33 176 23 l25 30 0 430 0 430 29 29 c36 36 73 37 106 4z m-204 -554 c23 -19
24 -23 24 -176 0 -153 -1 -157 -24 -176 -31 -25 -79 -24 -108 3 -22 21 -23 28
-23 172 0 140 1 151 22 173 27 29 77 30 109 4z m-206 -66 c24 -23 25 -30 25
-141 0 -107 -2 -120 -22 -141 -30 -32 -81 -31 -113 2 -24 23 -25 30 -25 140 0
110 1 117 25 140 15 16 36 25 55 25 19 0 40 -9 55 -25z"/>
<path d="M206 334 c-10 -9 -16 -33 -16 -57 0 -34 6 -48 39 -82 46 -47 58 -77
37 -94 -19 -16 -36 -6 -36 20 0 14 -7 19 -26 19 -24 0 -25 -3 -19 -27 14 -60
65 -81 113 -47 16 11 22 25 22 54 0 32 -8 48 -46 91 -29 33 -44 58 -42 72 4
29 38 35 45 8 8 -30 43 -28 43 2 0 49 -78 77 -114 41z"/>
<path d="M367 332 c-14 -15 -17 -41 -17 -135 0 -108 1 -117 22 -131 53 -37
108 -8 108 57 0 30 -4 37 -20 37 -15 0 -20 -7 -20 -29 0 -35 -15 -48 -36 -30
-11 9 -14 33 -12 108 3 88 5 96 23 96 14 0 21 -8 23 -27 2 -20 9 -28 23 -28
15 0 19 7 19 34 0 19 -7 42 -16 50 -21 22 -77 20 -97 -2z"/>
<path d="M512 203 c3 -145 3 -148 26 -151 22 -3 22 -3 22 147 l0 151 -25 0
-26 0 3 -147z"/>
<path d="M607 332 c-10 -10 -17 -35 -17 -55 0 -29 9 -47 46 -88 30 -33 44 -58
42 -72 -4 -30 -42 -30 -46 0 -2 15 -10 23 -23 23 -14 0 -19 -7 -19 -29 0 -53
78 -83 112 -43 39 43 30 93 -27 152 -32 33 -39 49 -36 78 2 20 32 14 38 -8 4
-13 14 -20 30 -20 19 0 24 4 19 16 -3 9 -6 19 -6 24 0 38 -84 54 -113 22z"/>
<path d="M767 332 c-10 -10 -17 -35 -17 -55 0 -29 9 -47 46 -88 30 -33 44 -58
42 -72 -4 -30 -42 -30 -46 0 -5 36 -42 31 -42 -5 0 -36 28 -62 67 -62 41 0 63
27 63 78 0 34 -6 48 -34 75 -41 41 -59 74 -52 93 8 21 37 17 43 -6 3 -11 14
-20 24 -20 24 0 26 42 3 64 -21 22 -77 20 -97 -2z"/>
<path d="M927 332 c-14 -15 -17 -40 -17 -130 0 -126 12 -152 70 -152 58 0 70
26 70 148 0 129 -10 152 -69 152 -24 0 -44 -7 -54 -18z m73 -126 c0 -106 -8
-129 -35 -106 -11 9 -15 35 -15 95 0 96 5 115 31 115 17 0 19 -9 19 -104z"/>
<path d="M1080 199 c0 -150 0 -150 23 -147 19 3 22 10 25 61 3 48 6 57 22 57
16 0 19 -9 22 -58 3 -50 6 -57 26 -60 21 -3 22 0 22 57 0 37 -5 65 -14 73 -11
12 -11 17 0 33 21 28 18 91 -6 115 -15 15 -33 20 -70 20 l-50 0 0 -151z m88
63 c3 -37 1 -42 -17 -42 -18 0 -21 6 -21 46 0 38 3 45 18 42 12 -2 18 -15 20
-46z"/>
<path d="M1273 342 c-18 -11 -32 -57 -26 -83 3 -13 20 -40 38 -59 49 -53 60
-79 42 -97 -18 -18 -37 -9 -37 18 0 14 -7 19 -25 19 -32 0 -33 -27 -4 -64 41
-53 119 -21 119 49 0 27 -10 46 -46 86 -29 33 -44 58 -42 72 4 29 38 35 45 8
3 -12 13 -21 24 -21 25 0 25 41 1 63 -19 18 -68 22 -89 9z"/>
</g>
</svg>
